# xmcd CD database file
#
# Track frame offsets:
#	150
#	19888
#	43905
#	79383
#	107663
#	143513
#	173284
#	206107
#	216084
#	233187
#	250640
#
# Disc length: 3638 seconds
#
# Revision: 0
# Processed by: cddbd v1.5.2PL0 Copyright (c) Steve Scherf et al.
# Submitted via: CDex 1.51
#
DISCID=900e340b
DTITLE=Tom Waits - Real Gone Tour [CD2)
DYEAR=2004
DGENRE=Blues
TTITLE0=God's Away On Business
TTITLE1=Alice
TTITLE2=Table Top Joe
TTITLE3=Metropolitan Glide
TTITLE4=Get Behind The Mule
TTITLE5=Day After Tomorrow
TTITLE6=Shake It
TTITLE7=Johnsburg, Illinois
TTITLE8=Lost In The Harbour
TTITLE9=Lucky Day
TTITLE10=Jockey Full Of Bourbon
EXTD=YEAR: 2004
EXTT0=
EXTT1=
EXTT2=
EXTT3=
EXTT4=
EXTT5=
EXTT6=
EXTT7=
EXTT8=
EXTT9=
EXTT10=
PLAYORDER=
